<svg height="38" viewBox="0 0 189 38" width="189" xmlns="http://www.w3.org/2000/svg">
<title>Kezdőlap</title>
<path d="M160.943.2952h-1.2052l-8.9315 17.5882-9.043-17.5882h-1.3112l-2.5208 19.2719c-.2654 1.9234-.5976 2.7769-.9848 3.5968h2.5033c-.1972-.7176-.1334-2.0783.0929-3.7664l1.5591-11.7873 8.0061 15.5523h.937l8.022-15.5406 1.4925 11.5506c.1697 1.2963.1697 2.8631-.0479 3.9914h5.0169c-.5323-1.1677-.7252-1.688-.9877-3.61L160.943.2952M47.1316.0015c-7.3027 0-13.0244 5.165-13.0244 11.8399 0 6.666 5.7217 11.8297 13.0244 11.8297 7.2998 0 13.0215-5.1636 13.0215-11.8297 0-6.6749-5.7217-11.84-13.0215-11.84zm.3684 21.904c-5.0488 0-9.0576-4.3261-9.2665-10.0641-.2132-5.7468 3.1198-10.0744 8.5283-10.0744 5.0487 0 9.0561 4.3276 9.2693 10.0744.2045 5.738-3.4896 10.0641-8.5311 10.0641zM183.5037 23.1625h5.1576c-.8905-.8609-1.829-2.1514-2.4671-3.7387L178.0938.304h-.9775l-8.2426 19.6533c-.6323 1.466-1.2081 2.3619-1.9043 3.2052h2.3351l3.1531-7.6366h7.9148l3.1313 7.6366zm-10.4021-9.1917l3.3286-8.0633 3.3011 8.0633h-6.6297zM11.9976 9.8464c1.6679-.798 3.14-2.1412 3.14-4.1479 0-2.2902-1.0616-3.724-3.0458-4.5687C10.8431.6022 8.7734.3756 6.7558.3756H.0204c.4105.6636.628 1.634.628 2.961v16.7406c0 1.6617-.2378 2.448-.6483 3.0853h7.2867c2.2583 0 4.9183-.4356 6.1902-1.0655 2.0784-1.0348 3.3664-2.9245 3.3664-5.7248 0-3.8819-2.8674-5.662-4.8457-6.5258zm-7.542-7.9625c.3568-.0219.8963-.0219 1.6099-.0219.6237 0 1.6433.0658 2.177.2002 1.7666.4414 2.9907 1.6311 2.9907 3.651 0 1.9043-1.211 2.98-2.7383 3.2256-.3655.0555-1.388.1417-1.7593.1417-.8529 0-1.6593-.0102-2.28-.0292V1.884zm4.5397 19.6066c-.4497.0935-1.5693.19-1.8986.19-.3292 0-2.206-.0088-2.6397-.0234V10.596c.3148-.0043 1.6172-.0219 2.0306-.0219.4133 0 1.5185.0658 2.1219.1973 2.6194.5715 4.2162 2.4072 4.1843 5.6752-.0058 2.5285-1.2676 4.4986-3.7985 5.0438zM98.4592 21.603l.0087-10.9615h8.0467l.541-1.5551h-8.5877l.0072-7.1542h6.2338c1.375 0 2.5236.1432 3.9102.9032L107.5066.3756H94.0355c.3916.6636.5961 1.634.5961 2.961v16.7406c0 1.6617-.2248 2.448-.615 3.0853h14.791l1.1545-2.4744c-1.3952.7366-2.7977.9149-4.3482.9149h-7.1547M79.246.8228C78.0566.532 75.8405.3756 75.1153.3756h-9.165c.396.6636.5947 1.634.5947 2.961v16.7406c0 1.6617-.219 2.448-.6121 3.0867h8.582c.9209 0 2.7701-.1096 3.842-.266 6.4353-.9017 10.1802-5.2089 10.1802-10.9717 0-5.6255-3.8145-9.7485-9.2911-11.1034zm-2.3816 20.6589c-.6381.0965-2.0088.1432-2.7165.1432-1.858 0-3.04.0088-3.7594-.054V2.0344c.7194-.0234 2.2611-.0687 3.1299-.0687 1.124 0 3.3518.2119 4.5818.6547 3.713 1.3286 6.2134 4.636 6.2134 9.2501 0 5.1826-2.2626 8.873-7.4492 9.611zM28.352.3756h-4.9864c.3946.6636.5962 1.634.5962 2.961v16.7406c0 1.6617-.2234 2.448-.615 3.0853h4.9922c-.396-.6636-.6005-1.6326-.6005-2.964V3.4624c0-1.6676.2234-2.448.6136-3.0868M124.0802 12.5356c2.9863-.2981 6.6558-1.957 6.6558-5.817 0-3.743-2.4207-5.2804-5.1518-5.9074-2.0958-.4882-4.5426-.4356-6.019-.4356h-4.6877c.393.6636.5975 1.634.5975 2.961v16.7406c0 1.6617-.2233 2.448-.615 3.0853h5.1083c-.512-.8813-.6541-1.9263-.6541-3.062V1.9175c.641-.0087 2.4062-.0789 3.713.2207 2.9486.6694 3.7985 2.5767 3.7985 4.6448 0 2.5665-1.6055 5.5378-6.2004 4.5264l-.5163.339c3.8783 6.0011 7.2548 9.5454 9.7698 11.514h5.7826c-4.0393-2.6804-8.3846-6.5155-11.5812-10.6268M1.1937 35.7945l2.5149.003v.7848l-3.6868-.0058.0043-6.14H1.198l-.0043 5.358M6.5122 36.5823H5.4636L8.225 30.422h.6962l2.499 6.1663h-1.211l-.6194-1.5215H7.175l-.6628 1.5156zm1.9102-4.4518l-.9471 2.2171h1.8289l-.8818-2.2171zM13.8802 30.4468h1.958c1.372.0029 2.2249.6197 2.2249 1.4235 0 .7732-.6295 1.2248-1.1067 1.387.9616.1052 1.6854.7585 1.6854 1.5302-.003 1.0509-1.1937 1.8065-2.4425 1.8065l-2.325-.0058.0059-6.1414zm3.5273 4.3773c0-.5759-.4714-1.0056-1.42-1.0056h-.9528v2.0637h.902c.9225.003 1.4708-.4414 1.4708-1.0581zm-1.7941-1.713c.7643 0 1.2705-.4077 1.272-1.042.0101-.5247-.4076-.9106-1.2778-.9135h-.57l-.003 1.9556h.5788zM27.9039 33.5335c-.003 1.9366-1.549 3.1862-3.436 3.1862-1.9783-.003-3.433-1.238-3.433-3.1905.0058-1.827 1.4402-3.1979 3.4403-3.1979 2.1204.0059 3.4287 1.333 3.4287 3.2022zm-5.6159-.0043c-.0058 1.387.8383 2.413 2.1814 2.4173 1.3387.0015 2.1843-1.0274 2.1843-2.413.0014-1.3826-.8398-2.4203-2.1814-2.4203-1.3402-.0058-2.1843 1.0085-2.1843 2.416zM34.4712 36.6992l-1.8956-2.8558h-.7006v2.758h-1.1704l.0014-6.1415h1.8913c1.6375.003 2.4265.8112 2.425 1.5902 0 .8447-.7831 1.4235-1.298 1.5667l2.0668 2.9889-1.3199.0935zm-1.9783-3.5764c.9456.003 1.372-.5159 1.372-.985 0-.497-.4031-.9588-1.3604-.9588h-.6266v1.9439h.615zM38.4018 36.6086h-1.0443l2.7572-6.159h.7005l2.4917 6.1678-1.2096-.003-.6178-1.52-2.4135-.0014-.6642 1.5156zm1.913-4.4533l-.947 2.2186h1.8288l-.8818-2.2186zM44.2584 30.4731l5.4882.0044v.7907h-2.1552l-.0058 5.3536-1.1661-.0044.0058-5.3522-2.1669-.0029v-.7892M58.1313 33.554c-.0029 1.938-1.5447 3.1905-3.4389 3.1862-1.9783 0-3.4287-1.2365-3.4272-3.1877 0-1.8225 1.433-3.1934 3.4316-3.1934 2.1263.0044 3.4345 1.3314 3.4345 3.1949zm-5.6144-.0015c-.0058 1.3827.8368 2.416 2.1784 2.416 1.3387 0 2.1858-1.0304 2.1858-2.4145.0014-1.3782-.8413-2.4188-2.1843-2.4188-1.3373-.0015-2.18 1.0084-2.18 2.4173zM60.9291 36.6305l.0043-6.1457h1.1603l-.0029 6.1457h-1.1617M68.9323 36.73l-1.8942-2.8603h-.702l-.0029 2.7652h-1.1676l.0059-6.1472 1.8869.0015c1.636 0 2.428.8111 2.428 1.5857 0 .8477-.7847 1.4265-1.3025 1.5653l2.0682 2.9962-1.3198.0935zm-1.9769-3.578c.9457.003 1.3677-.5144 1.3677-.985.003-.4998-.4003-.9573-1.3575-.9573h-.6266l-.0029 1.9424h.6193zM76.7963 36.6378l-4.0945-.0014.0058-6.1429 3.9697.0015v.7863l-2.805-.0029-.0015 1.8064h2.0538v.7849l-2.0552-.0044v1.9877l2.9269.0073v.7775M83.5768 30.5023l2.1001.003c2.1858 0 3.6753 1.159 3.6753 3.0545 0 1.7758-1.7303 3.0883-3.681 3.0883h-2.1017l.0073-6.1458zm2.1263 5.3668c1.1675 0 2.396-.9252 2.396-2.3093.0029-1.5799-1.1806-2.2697-2.4135-2.2697l-.9427-.003-.0073 4.5761.9675.0059zM96.2459 36.6568h-4.093l.0058-6.1457h3.9711l-.0029.7834h-2.8006l-.0058 1.805h2.0566l-.0044.7848h-2.0522v1.9906l2.9254.0015v.7804M102.6334 36.7562l-1.8957-2.8573h-.702v2.7609h-1.169l.0058-6.1443h1.8884c1.6331.0043 2.425.814 2.425 1.5872-.0014.8477-.7846 1.4265-1.3024 1.5668l2.0697 2.9947-1.3198.092zm-1.9798-3.5749c.9456 0 1.3735-.5174 1.3735-.9865.0029-.497-.4047-.9588-1.3605-.9588h-.628l-.0029 1.941.6179.0043zM113.1167 36.6715h-1.1414l-.0769-4.1479-1.9421 4.2063h-.7295l-1.8666-4.123-.1654 4.0587h-.963l.2683-6.1458h1.0965l2.1277 4.7749 2.1857-4.769 1.0573.0029.1494 6.1429M116.4845 36.6773h-1.0428l2.7557-6.1662h.7034l2.4932 6.1662h-1.211l-.6164-1.5215-2.4193-.0014-.6628 1.523zm1.9145-4.462l-.947 2.2215h1.8288l-.8818-2.2216zM122.3469 30.5345l5.4825.0073v.7907l-2.1553-.003-.0029 5.3522h-1.1675l.0058-5.3522-2.1626-.0029v-.7921M136.214 33.6227c0 1.9336-1.5475 3.1876-3.4374 3.1832-1.9768 0-3.4316-1.2364-3.4316-3.189 0-1.824 1.436-3.195 3.4374-3.195 2.1263 0 3.4345 1.3315 3.4316 3.2008zm-5.6158-.0059c-.003 1.3841.8412 2.416 2.1813 2.416 1.3402.0014 2.1872-1.029 2.1872-2.413 0-1.3812-.8441-2.4203-2.1843-2.4233-1.3401 0-2.1842 1.01-2.1842 2.4203zM140.1837 35.9085h2.5179v.7849l-3.6869-.0015.0029-6.1443h1.169l-.0029 5.3609M151.327 33.6344c-.0058 1.935-1.5475 3.1847-3.4374 3.1847-1.9798-.0015-3.4287-1.2365-3.4258-3.1906 0-1.824 1.433-3.1949 3.4316-3.192 2.1234 0 3.4316 1.3286 3.4316 3.1979zm-5.6173-.0015c0 1.3768.8427 2.4101 2.1828 2.4116 1.3402 0 2.1843-1.029 2.1843-2.4101 0-1.3826-.8412-2.4218-2.1814-2.4247-1.3416 0-2.1857 1.0114-2.1857 2.4232zM157.4288 36.825c-2.1045-.003-3.5752-1.4046-3.5752-3.1892.0014-1.7874 1.4953-3.1963 3.5665-3.1963 1.3082.0058 1.9507.2996 2.2568.4194l-.3467.7571c-.2248-.095-.8644-.3537-1.858-.3552-1.3096 0-2.3698 1.0684-2.3698 2.3794 0 1.444 1.137 2.3677 2.4482 2.3677.7005 0 .966-.0789 1.2212-.1564v-1.7889l1.1458.003-.0043 2.3004c-.322.1403-1.1154.459-2.4845.459M162.6414 36.7095l.003-6.1414 1.1574.0029-.0087 6.1385h-1.1517M173.3931 37.1333l-.3858.8667-3.9813-1.2774c-1.562-.551-2.4149-1.4776-2.4149-3.0765 0-1.827 1.436-3.1935 3.4345-3.1935 2.1205.003 3.4288 1.3286 3.4288 3.1993 0 1.4543-1.0023 2.6527-2.2684 2.9363l2.1871.5451zm-5.5317-3.4858c-.003 1.3812.8383 2.4218 2.1755 2.4218 1.346 0 2.1901-1.0348 2.193-2.4174 0-1.3811-.847-2.4247-2.1872-2.4247-1.3372-.0029-2.1813 1.0421-2.1813 2.4203zM181.5544 34.6794c-.0029.985-.7774 2.166-2.7368 2.163-1.7753-.0029-2.7311-.8564-2.7282-2.1294v-4.1376l1.1733.0058-.0087 4.0222c0 .9617.5004 1.4396 1.6462 1.4396 1.0864 0 1.594-.7015 1.594-1.4396l.0029-4.0207h1.0602l-.0029 4.0967M188.6613 36.7299h-4.0915l.0029-6.1443h3.9726v.7849l-2.8051-.003-.0029 1.8065 2.0523.0029v.7819l-2.0523-.0029v1.9921l2.924.0015v.7804"></path>
</svg>